<svg width="432" height="432" viewBox="0 0 432 432" fill="none" xmlns="http://www.w3.org/2000/svg">
<path d="M101.605 414V380.4H124.645V383.472H105.157V414H101.605ZM104.773 399.744V396.672H122.533V399.744H104.773ZM131.26 414V378.384H134.668V414H131.26ZM154.422 414.24C151.99 414.24 149.798 413.696 147.846 412.608C145.926 411.488 144.406 409.968 143.286 408.048C142.166 406.096 141.606 403.872 141.606 401.376C141.606 398.848 142.166 396.624 143.286 394.704C144.406 392.784 145.926 391.28 147.846 390.192C149.766 389.104 151.958 388.56 154.422 388.56C156.918 388.56 159.126 389.104 161.046 390.192C162.998 391.28 164.518 392.784 165.606 394.704C166.726 396.624 167.286 398.848 167.286 401.376C167.286 403.872 166.726 406.096 165.606 408.048C164.518 409.968 162.998 411.488 161.046 412.608C159.094 413.696 156.886 414.24 154.422 414.24ZM154.422 411.216C156.246 411.216 157.862 410.816 159.27 410.016C160.678 409.184 161.782 408.032 162.582 406.56C163.414 405.056 163.83 403.328 163.83 401.376C163.83 399.392 163.414 397.664 162.582 396.192C161.782 394.72 160.678 393.584 159.27 392.784C157.862 391.952 156.262 391.536 154.47 391.536C152.678 391.536 151.078 391.952 149.67 392.784C148.262 393.584 147.142 394.72 146.31 396.192C145.478 397.664 145.062 399.392 145.062 401.376C145.062 403.328 145.478 405.056 146.31 406.56C147.142 408.032 148.262 409.184 149.67 410.016C151.078 410.816 152.662 411.216 154.422 411.216ZM174.244 414V388.8H177.508V395.664L177.172 394.464C177.876 392.544 179.06 391.088 180.724 390.096C182.388 389.072 184.452 388.56 186.916 388.56V391.872C186.788 391.872 186.66 391.872 186.532 391.872C186.404 391.84 186.276 391.824 186.148 391.824C183.492 391.824 181.412 392.64 179.908 394.272C178.404 395.872 177.652 398.16 177.652 401.136V414H174.244ZM207.333 414V408.432L207.189 407.52V398.208C207.189 396.064 206.581 394.416 205.365 393.264C204.181 392.112 202.405 391.536 200.037 391.536C198.405 391.536 196.853 391.808 195.381 392.352C193.909 392.896 192.661 393.616 191.637 394.512L190.101 391.968C191.381 390.88 192.917 390.048 194.709 389.472C196.501 388.864 198.389 388.56 200.373 388.56C203.637 388.56 206.149 389.376 207.909 391.008C209.701 392.608 210.597 395.056 210.597 398.352V414H207.333ZM198.645 414.24C196.757 414.24 195.109 413.936 193.701 413.328C192.325 412.688 191.269 411.824 190.533 410.736C189.797 409.616 189.429 408.336 189.429 406.896C189.429 405.584 189.733 404.4 190.341 403.344C190.981 402.256 192.005 401.392 193.413 400.752C194.853 400.08 196.773 399.744 199.173 399.744H207.861V402.288H199.269C196.837 402.288 195.141 402.72 194.181 403.584C193.253 404.448 192.789 405.52 192.789 406.8C192.789 408.24 193.349 409.392 194.469 410.256C195.589 411.12 197.157 411.552 199.173 411.552C201.093 411.552 202.741 411.12 204.117 410.256C205.525 409.36 206.549 408.08 207.189 406.416L207.957 408.768C207.317 410.432 206.197 411.76 204.597 412.752C203.029 413.744 201.045 414.24 198.645 414.24ZM220.574 414V380.4H233.15C235.998 380.4 238.446 380.864 240.494 381.792C242.542 382.688 244.11 384 245.198 385.728C246.318 387.424 246.878 389.488 246.878 391.92C246.878 394.288 246.318 396.336 245.198 398.064C244.11 399.76 242.542 401.072 240.494 402C238.446 402.928 235.998 403.392 233.15 403.392H222.542L224.126 401.712V414H220.574ZM224.126 402L222.542 400.272H233.054C236.414 400.272 238.958 399.552 240.686 398.112C242.446 396.64 243.326 394.576 243.326 391.92C243.326 389.232 242.446 387.152 240.686 385.68C238.958 384.208 236.414 383.472 233.054 383.472H222.542L224.126 381.792V402ZM263.969 414.24C261.537 414.24 259.345 413.696 257.393 412.608C255.473 411.488 253.953 409.968 252.833 408.048C251.713 406.096 251.153 403.872 251.153 401.376C251.153 398.848 251.713 396.624 252.833 394.704C253.953 392.784 255.473 391.28 257.393 390.192C259.313 389.104 261.505 388.56 263.969 388.56C266.465 388.56 268.673 389.104 270.593 390.192C272.545 391.28 274.065 392.784 275.153 394.704C276.273 396.624 276.833 398.848 276.833 401.376C276.833 403.872 276.273 406.096 275.153 408.048C274.065 409.968 272.545 411.488 270.593 412.608C268.641 413.696 266.433 414.24 263.969 414.24ZM263.969 411.216C265.793 411.216 267.409 410.816 268.817 410.016C270.225 409.184 271.329 408.032 272.129 406.56C272.961 405.056 273.377 403.328 273.377 401.376C273.377 399.392 272.961 397.664 272.129 396.192C271.329 394.72 270.225 393.584 268.817 392.784C267.409 391.952 265.809 391.536 264.017 391.536C262.225 391.536 260.625 391.952 259.217 392.784C257.809 393.584 256.689 394.72 255.857 396.192C255.025 397.664 254.609 399.392 254.609 401.376C254.609 403.328 255.025 405.056 255.857 406.56C256.689 408.032 257.809 409.184 259.217 410.016C260.625 410.816 262.209 411.216 263.969 411.216ZM283.791 414V388.8H287.199V414H283.791ZM285.519 383.232C284.815 383.232 284.223 382.992 283.743 382.512C283.263 382.032 283.023 381.456 283.023 380.784C283.023 380.112 283.263 379.552 283.743 379.104C284.223 378.624 284.815 378.384 285.519 378.384C286.223 378.384 286.815 378.608 287.295 379.056C287.775 379.504 288.015 380.064 288.015 380.736C288.015 381.44 287.775 382.032 287.295 382.512C286.847 382.992 286.255 383.232 285.519 383.232ZM296.682 414V388.8H299.946V395.712L299.418 394.416C300.218 392.592 301.498 391.168 303.258 390.144C305.018 389.088 307.114 388.56 309.546 388.56C311.594 388.56 313.386 388.96 314.922 389.76C316.49 390.528 317.706 391.712 318.57 393.312C319.466 394.912 319.914 396.928 319.914 399.36V414H316.506V399.696C316.506 397.04 315.834 395.04 314.49 393.696C313.178 392.32 311.322 391.632 308.922 391.632C307.13 391.632 305.562 392 304.218 392.736C302.906 393.44 301.882 394.48 301.146 395.856C300.442 397.2 300.09 398.832 300.09 400.752V414H296.682ZM337.087 414.24C334.719 414.24 332.895 413.6 331.615 412.32C330.335 411.04 329.695 409.232 329.695 406.896V383.232H333.103V406.704C333.103 408.176 333.471 409.312 334.207 410.112C334.975 410.912 336.063 411.312 337.471 411.312C338.975 411.312 340.223 410.88 341.215 410.016L342.415 412.464C341.743 413.072 340.927 413.52 339.967 413.808C339.039 414.096 338.079 414.24 337.087 414.24ZM325.183 391.632V388.8H340.783V391.632H325.183Z" fill="white"/>
<path d="M167.281 81.75C181.336 72.3594 197.672 66.5078 214.445 64.6016C221.203 64.3281 227.977 64.2656 234.734 64.625C247.297 66.1484 259.758 69.5078 270.992 75.4297C272.93 76.1172 273.203 78.1172 273.398 79.9062C271.023 79.9844 268.641 79.9453 266.289 79.5859C257.148 78.2578 247.875 78.2734 238.664 78.5469C228.508 79.1641 218.148 80.1484 208.617 83.9531C205.359 85.3516 201.625 86.8672 199.945 90.2109C199.125 93.0937 202.211 94.8594 204.305 96.0469C215.563 101.523 228.266 102.445 240.5 104C250.562 104.43 260.641 105.57 270.695 104.422C279.914 104.437 289.055 103.234 298.141 101.766C301.047 101.32 304.07 100.391 307 101.242C307.102 102.344 307.672 103.867 306.305 104.414C302.664 106.25 298.43 106.141 294.477 106.805C281.453 108.852 268.227 109.102 255.062 108.953C248.719 109.102 242.391 108.539 236.086 107.867C224.969 106.32 213.508 105.086 203.234 100.258C199.727 98.4609 195.586 95.7969 195.453 91.4062C195.5 86.1875 200.367 82.8906 204.578 80.8281C215.281 76.125 227.109 74.9062 238.664 74.1797C244.5 73.7344 250.344 74.2812 256.18 74.0312C249.539 71.0234 242.227 70.0234 235.055 69.1641C214.43 66.8672 193.148 71.4453 175.242 81.9219C157.469 92.4141 142.383 107.156 130.75 124.164C124.43 133.445 118.719 143.297 115.133 153.977C127.875 149.109 141.5 146.797 153.883 141C157.914 139.031 161.844 136.609 164.758 133.141C166.859 130.672 167.75 127.492 168.633 124.445C169.656 124.328 170.672 124.211 171.695 124.094C173.047 128.141 170.883 132.148 168.492 135.305C164.406 140.562 158.398 143.883 152.375 146.453C141.383 150.914 129.617 153.078 118.609 157.469C115.703 158.75 112.852 160.336 109.609 160.5C109.531 154.781 112.234 149.617 114.344 144.469C119.594 132.25 126.945 121.039 135.438 110.852C137.711 108.187 139.602 105.188 142.172 102.789C144.727 100.375 147.344 98.0234 149.859 95.5703C151.969 93.5156 153.836 91.1641 156.344 89.5625C160.109 87.1172 163.586 84.2812 167.281 81.75Z" fill="#094D47"/>
<path d="M143.094 99.4687C142.805 96.1953 145.703 94.6563 148.32 93.6797C148.195 96.7266 145.844 98.6797 143.094 99.4687Z" fill="#835B3E"/>
<path d="M167.141 119.508C169.391 119.68 171.633 119.938 173.875 120.219C173.914 120.875 173.992 122.172 174.039 122.82C172.047 122.695 170.016 122.719 168.078 122.187C167.734 121.305 167.414 120.414 167.141 119.508Z" fill="#835B3E"/>
<path d="M145.109 112.055C147.156 112.664 149.164 113.398 151.125 114.234C150.844 115.227 150.57 116.219 150.289 117.211C148.586 116.383 146.883 115.539 145.172 114.711C145.156 114.047 145.125 112.719 145.109 112.055Z" fill="#875C3D"/>
<path d="M272.375 116.391C275.023 116.242 277.68 116.273 280.32 116.555C279.859 117.422 279.555 118.406 278.883 119.148C276.797 119.484 274.672 119.328 272.57 119.281C272.5 118.32 272.437 117.352 272.375 116.391Z" fill="#83583A"/>
<path d="M286.43 116.383C288.656 116.023 290.922 116.25 293.172 116.328C293.203 116.977 293.281 118.266 293.312 118.914C291.336 119.156 289.32 119.547 287.336 119.211C286 119.094 285.086 117.18 286.43 116.383Z" fill="#84593A"/>
<path d="M155.328 116.992C157.555 117.188 159.781 117.5 161.992 117.859C162.008 118.547 162.039 119.922 162.062 120.609C159.484 120.219 155.641 120.484 155.328 116.992Z" fill="#865E3F"/>
<path d="M258.523 117.172C261.031 117.047 263.547 117.008 266.055 116.984C266.023 117.617 265.961 118.898 265.93 119.539C263.711 119.578 261.219 120.547 259.164 119.398C259 118.844 258.68 117.734 258.523 117.172Z" fill="#84583A"/>
<path d="M299.469 117.18C301.742 116.883 304.031 117.18 306.289 117.461C306.391 118.383 306.492 119.32 306.602 120.25C304.422 120.203 302.195 120.328 300.078 119.773C299.383 119.039 299.18 118.172 299.469 117.18Z" fill="#845B3D"/>
<path d="M203.727 225.469C206.062 225.734 208.344 226.352 210.516 227.242C210.453 227.883 210.344 229.156 210.281 229.789C207.742 228.984 203.937 228.906 203.727 225.469Z" fill="#845B3D"/>
<path d="M192.766 271.578C195.906 271.758 198.914 272.898 201.125 275.195C198.305 276.672 195.445 275.039 192.789 274.055C192.781 273.438 192.773 272.195 192.766 271.578Z" fill="#845B3D"/>
<path d="M245.391 118.422C247.633 117.344 250.211 117.945 252.602 117.961C252.578 118.547 252.531 119.727 252.508 120.312C250.164 120.609 247.695 121.484 245.391 120.609C244.937 119.875 244.937 119.148 245.391 118.422Z" fill="#865A3B"/>
<path d="M235.07 119.008C236.5 118.859 238.063 118.828 239.297 119.695C239.523 122.219 236.484 121.805 234.781 121.945C233.398 121.781 230.977 122.375 231.328 120.203C232.477 119.539 233.75 119.133 235.07 119.008Z" fill="#805537"/>
<path d="M312.531 118.727C315.437 119.016 318.492 119.594 320.523 121.906C318.125 122.75 315.477 122.719 313.195 121.539C312.93 120.609 312.711 119.672 312.531 118.727Z" fill="#835938"/>
<path d="M218.453 120.391C220.961 120.32 223.469 120.297 225.977 120.367C225.313 123.898 221.086 122.992 218.445 123.492C218.445 122.461 218.445 121.422 218.453 120.391Z" fill="#825638"/>
<path d="M179.875 121.055C182.039 121.109 184.211 121.172 186.375 121.242C186.352 122.203 186.32 123.164 186.289 124.117C184.156 123.984 182.016 123.82 179.891 123.617C179.883 122.977 179.883 121.695 179.875 121.055Z" fill="#855B3D"/>
<path d="M204.719 121.625C207.117 121.352 209.531 121.172 211.945 121.047C211.984 121.703 212.062 123.016 212.102 123.672C209.781 123.914 207.445 124.055 205.117 124.141C205.023 123.508 204.82 122.258 204.719 121.625Z" fill="#845836"/>
<path d="M191.414 121.992C193.922 121.734 196.445 121.648 198.969 121.633C198.984 122.305 199 123.641 199.008 124.305C196.336 124.07 192.586 125.25 191.414 121.992Z" fill="#805637"/>
<path d="M324.836 123.195C327.461 123.766 330.992 124.875 330.906 128.195C328.555 128.43 326.695 126.789 324.797 125.703C324.805 125.078 324.82 123.82 324.836 123.195Z" fill="#855A3A"/>
<path d="M230.687 133.82C250.445 130.297 270.602 129.195 290.625 130.211C302.461 131.297 314.633 132.844 325.336 138.352C330.438 140.969 335.547 145.406 335.797 151.555C335.773 157.305 331.594 161.867 327.461 165.367C316.82 174.195 303.492 178.656 290.672 183.266C279.305 186.93 267.844 190.375 256.086 192.555C256.172 194.469 256.148 196.391 256.539 198.273C258.547 200.766 261.437 202.414 263.312 205.039C265.898 208.375 266.031 213.531 263.312 216.836C260.156 220.961 255.391 223.352 250.727 225.352C244.445 228.047 237.977 230.25 231.508 232.422C229.969 232.852 228.453 233.336 226.93 233.813C214.484 237.664 202.078 241.727 190.008 246.656C185.734 248.617 181.086 250.469 178.047 254.227C176.07 256.703 178.664 260.266 176.859 262.75C175.852 263.063 175.039 262.797 174.445 261.953C172.328 259.305 172.117 255.312 174.023 252.484C176.617 248.469 181.039 246.188 185.203 244.125C195.125 239.563 205.523 236.141 215.914 232.828C218.086 232.148 220.258 231.477 222.422 230.797C234.172 226.734 246.609 223.805 257.117 216.898C258.906 215.594 260.766 213.891 261.078 211.57C261.336 209.367 259.906 207.461 258.5 205.945C254.453 201.82 249.039 199.492 243.852 197.148C229.516 191.133 213.602 188.406 200.75 179.203C199.898 183.766 200.086 188.453 199.172 193.008C197.937 199.563 196.57 206.172 194.016 212.359C193.539 213.813 191.805 213.93 190.633 214.547C190.656 212.852 190.57 211.148 190.617 209.453C191.25 206.742 192.031 204.055 192.25 201.266C186.617 201.07 180.992 201.508 175.359 201.555C161.297 201.086 147.086 200.336 133.438 196.625C127 194.75 120.25 192.187 115.883 186.836C113.375 183.906 113.148 179.688 114.023 176.094C115.57 171.617 119.313 168.352 123.047 165.664C131.039 160.195 140.18 156.711 149.344 153.75C170.836 146.992 192.672 141.328 214.734 136.773C220 135.492 225.32 134.531 230.687 133.82ZM255.031 134.602L254.859 135.008C254.648 135.203 254.227 135.586 254.016 135.781C249.07 135.039 244.211 136.563 239.281 136.617C238.055 136.93 236.828 137.25 235.609 137.586C231.781 138.07 227.984 138.82 224.125 139.008C223.57 139.227 223.016 139.453 222.469 139.68C217.953 140.5 213.398 141.219 209.031 142.688C208.789 142.43 208.312 141.93 208.07 141.68L208.281 142.586C203.992 143.609 199.672 144.469 195.414 145.633C195.047 145.742 194.312 145.961 193.945 146.07C188.609 147.344 183.086 148.141 178.055 150.422C177.383 150.352 176.703 150.313 176.023 150.305C170.156 152.289 163.977 153.344 158.32 155.945C156.672 155.484 155.062 156.461 153.516 156.906C148.383 158.672 143.039 160.125 138.367 162.977C137.172 162.828 136.062 163.438 134.953 163.781C130.352 166.195 125.547 168.523 121.906 172.352L121.453 172.25C121.25 172.461 120.852 172.883 120.648 173.094C117.891 176.328 116.406 181.391 119.656 184.844C120.219 185.141 120.797 185.422 121.383 185.68C122.5 187.031 123.805 188.25 125.398 189.016C131.609 192.156 138.508 193.469 145.281 194.828C145.656 194.758 146.406 194.625 146.789 194.555C153.406 196.789 160.555 196.414 167.445 196.945C167.727 196.797 168.289 196.508 168.57 196.367C174.219 197.539 180 196.922 185.711 197.187C185.906 197 186.297 196.625 186.492 196.445C189.008 196.719 191.531 196.789 194.062 196.789C194.852 192.844 195.547 188.852 195.547 184.813C196.477 182.711 196.383 180.336 196.375 178.086C196.227 173.063 195.828 168.008 194.531 163.133L195.211 162.719C196.687 162.391 198.211 162.281 199.461 163.297C199.797 166.25 199.742 169.344 200.945 172.117C202.336 174.766 204.75 176.703 207.211 178.313C212.984 181.906 219.523 183.945 225.906 186.156L225.656 186.633C227.25 186.828 228.844 187.016 230.445 187.195L230.469 187.805C237.727 189.641 244.484 192.891 251.453 195.531C250.695 191.07 249.492 186.695 248.742 182.227C247.937 177.555 247.641 172.805 246.953 168.117C247.055 163.977 246.937 159.844 246.898 155.711C247.172 155.625 247.719 155.469 247.992 155.391C248.898 155.609 249.805 155.828 250.711 156.047C250.828 158.43 250.906 160.813 250.93 163.203L251.352 163.602C251.289 164.719 251.305 165.828 251.406 166.945C251.484 169.328 251.242 171.961 252.719 174.008C252.406 177.258 252.562 180.547 253.43 183.703C253.57 185.172 253.812 186.617 254.023 188.078C255.937 188.023 257.914 188.047 259.742 187.367C261.867 187.008 263.977 186.609 266.086 186.219L265.453 186.156C269.453 185.133 273.461 184.039 277.281 182.453C277.937 182.539 278.602 182.594 279.273 182.633C286.555 179.633 294.453 178.102 301.367 174.234C301.648 174.211 302.203 174.164 302.484 174.133C305.687 173.578 308.492 171.75 311.414 170.406C316.258 167.836 321.461 165.422 325.031 161.109C326.039 160.914 326.484 159.844 327.164 159.195C329.32 157.938 330.57 155.453 331.125 153.094C331.773 150.367 330.148 147.93 328.953 145.633C328.75 145.703 328.328 145.859 328.125 145.93C324.891 142.148 319.922 140.906 315.719 138.578C313.68 138.227 311.633 137.891 309.586 137.594C305.805 136.531 301.922 135.688 297.992 135.516C295.57 135.281 293.695 137.063 291.75 138.211C292.797 137.047 293.852 135.891 294.891 134.719C288.305 134.844 281.766 133.766 275.18 133.969C274.734 134.508 274.297 135.063 273.867 135.617L274.406 134.891L273.875 135.25C272.617 134.641 271.344 133.867 269.891 134.102C264.945 134.469 259.992 134.977 255.031 134.602Z" fill="#094E47"/>
<path d="M333.047 132.055C336.508 132.742 337.203 138.289 333.93 139.602C332.25 137.43 333 134.562 333.047 132.055Z" fill="#885F40"/>
<path d="M254.016 135.781C254.227 135.586 254.648 135.203 254.859 135.008C253.484 138.367 251.836 141.648 249.547 144.484C246.867 147.922 243.344 150.523 240.117 153.414C248.977 151.602 257.242 147.562 264.578 142.344C267.742 140.062 270.617 137.406 273.875 135.25L274.406 134.891L273.867 135.617C267.742 143.961 258.719 149.688 249.25 153.555C243.555 155.883 237.266 154.984 231.297 154.711C235.984 152.086 240.977 149.828 244.93 146.094C248.437 143.094 250.742 139 254.016 135.781Z" fill="#84593C"/>
<path d="M193.945 146.07C194.312 145.961 195.047 145.742 195.414 145.633C198.023 148 200.711 150.328 203.82 152.008C207.547 154.023 211.547 155.445 215.359 157.273C209.906 158.828 204.156 159.922 199.461 163.297C198.211 162.281 196.687 162.391 195.211 162.719C184.242 163.344 172.969 162.93 162.555 159.102C163.781 158.945 165 158.742 166.234 158.602C171.352 159.266 176.414 160.477 181.594 160.563C187.711 160.641 193.859 160.875 199.945 160.07C196.711 158.953 193.375 158.172 190.094 157.219C185.047 155.742 180.406 153.172 176.023 150.305C176.703 150.312 177.383 150.352 178.055 150.422C187.602 154.57 197.812 158.125 208.383 157.469C202.953 154.523 197.812 150.953 193.945 146.07Z" fill="#84593C"/>
<path d="M235.609 137.586C236.828 137.25 238.055 136.93 239.281 136.617C238.25 141.719 236.781 146.922 233.438 151.039C231.609 153.891 228.594 155.633 225.211 155.875C227.953 152.703 231.312 150.07 233.617 146.531C235.508 143.687 236.758 140.492 237.961 137.312C237.375 137.383 236.195 137.516 235.609 137.586Z" fill="#835A3F"/>
<path d="M309.586 137.594C311.633 137.891 313.68 138.227 315.719 138.578C311.016 140.469 306.953 143.555 302.445 145.812C293.828 150.141 284.641 153.281 275.242 155.398C271.273 156.227 267.258 156.875 263.359 158C271.133 158.664 278.906 157.719 286.648 157.078C299.523 155.359 312.477 152.828 324.375 147.437C325.609 146.906 326.859 146.398 328.125 145.93C328.328 145.859 328.75 145.703 328.953 145.633C318.516 152.672 306.195 156.32 293.914 158.555C283.336 160.805 272.492 160.234 261.773 160.742C267.375 162.516 273.273 162.758 279.078 163.375C284.594 163.945 290.148 163.789 295.688 163.812C306.359 163.937 316.766 161.25 327.164 159.195C326.484 159.844 326.039 160.914 325.031 161.109C319.195 162.062 313.602 164.133 307.734 164.969C298.414 166.453 288.922 166.398 279.516 165.961C272.008 165.555 264.703 163.648 257.258 162.711C271.438 169.445 287.164 171.57 302.484 174.133C302.203 174.164 301.648 174.211 301.367 174.234C288.914 174.773 276.508 172.297 264.727 168.422C260.047 166.898 255.602 164.75 250.93 163.203C250.906 160.812 250.828 158.43 250.711 156.047C249.805 155.828 248.898 155.609 247.992 155.391C252.938 153.961 258.063 153.258 262.953 151.633C270.07 149.266 277.063 146.375 283.492 142.484C285.695 141.156 288.031 140.047 290.492 139.281C282.805 146.883 272.344 150.422 262.688 154.75C274.164 153.859 285.242 150.352 296 146.445C301.703 144.328 307.352 141.937 312.406 138.523C311.469 138.203 310.523 137.891 309.586 137.594Z" fill="#835738"/>
<path d="M222.469 139.68C223.016 139.453 223.57 139.227 224.125 139.008C224.016 144.734 224.555 150.531 223.188 156.164C222.594 156.156 221.414 156.133 220.82 156.125C222.102 150.742 222.633 145.211 222.469 139.68Z" fill="#80583D"/>
<path d="M208.07 141.68C208.313 141.93 208.789 142.43 209.031 142.687C210.93 145.336 212.266 148.344 214.336 150.883C216.039 152.984 217.82 155.047 219.266 157.344C217.508 156.758 215.516 156.359 214.273 154.859C211.242 151.383 209.273 147.062 208.281 142.586L208.07 141.68Z" fill="#80573A"/>
<path d="M153.516 156.906C155.063 156.461 156.672 155.484 158.32 155.945C160.953 156.844 163.547 157.875 166.234 158.602C165 158.742 163.781 158.945 162.555 159.102C159.555 158.328 156.578 157.406 153.516 156.906Z" fill="#A79992"/>
<path d="M245.047 163.445C247.391 161.609 246.586 158.297 246.898 155.711C246.937 159.844 247.055 163.977 246.953 168.117C246.891 167.734 246.781 166.977 246.719 166.594C244.711 167.375 242.672 168.094 240.602 168.68C241.797 166.703 243.352 165 245.047 163.445Z" fill="#885E40"/>
<path d="M134.953 163.781C136.062 163.438 137.172 162.828 138.367 162.977C146.156 164.75 154.07 166.234 162.086 166.227C172.93 166.281 184.125 166.586 194.531 163.133C195.828 168.008 196.227 173.063 196.375 178.086C196.383 180.336 196.477 182.711 195.547 184.813C192.82 188.898 190.023 193 186.492 196.445C186.297 196.625 185.906 197 185.711 197.188C188.687 191.75 192.016 186.484 194.586 180.836C195.531 178.773 196.008 176.516 195.922 174.25C191.484 177.664 188.047 182.164 183.727 185.703C178.953 189.625 173.969 193.344 168.57 196.367C168.289 196.508 167.727 196.797 167.445 196.945C176.219 188.523 186.641 181.633 193.766 171.602C187.68 174.422 182.234 178.398 176.195 181.313C166.68 186.336 156.742 190.484 146.789 194.555C146.406 194.625 145.656 194.758 145.281 194.828C150.078 191.313 155.602 189.039 160.875 186.359C168.969 182.211 177.359 178.492 184.875 173.32C180.008 174.609 175.312 176.445 170.516 177.977C161.867 180.727 153.062 183 144.117 184.594C136.641 186.086 128.961 185.688 121.383 185.68C120.797 185.422 120.219 185.141 119.656 184.844C135.062 184.938 150.25 181.508 164.914 177.023C170.578 175.211 176.312 173.523 181.773 171.125C174.328 172.195 167 173.977 159.516 174.789C151.82 175.977 144.023 175.961 136.266 175.781C130.953 175.672 125.773 174.383 120.648 173.094C120.852 172.883 121.25 172.461 121.453 172.25L121.906 172.352C133.516 175.281 145.594 174.031 157.32 172.602C164.203 171.594 171.133 170.711 177.867 168.891C169.797 168.281 161.648 169.102 153.625 167.742C147.266 167.086 141.297 164.523 134.953 163.781Z" fill="#83573A"/>
<path d="M251.352 163.602C259.375 171.648 269.156 177.594 279.273 182.633C278.602 182.594 277.937 182.539 277.281 182.453C267.687 179.234 258.625 174.094 251.406 166.945C251.305 165.828 251.289 164.719 251.352 163.602Z" fill="#855B3C"/>
<path d="M235.773 171.391C236.578 171.172 237.305 171.352 237.953 171.938C237.039 174.047 235.539 176.266 233.258 177.016C231.492 176.852 232.289 174.977 232.891 174.016C233.625 172.938 234.578 171.953 235.773 171.391Z" fill="#855E41"/>
<path d="M232.133 286.625C234.711 287.242 237.102 288.414 239.344 289.82C239.297 290.445 239.203 291.687 239.156 292.312C236.148 291.539 231.734 290.68 232.133 286.625Z" fill="#855E41"/>
<path d="M252.719 174.008C255.227 177.523 257.602 181.187 260.57 184.344C261.781 185.766 263.687 186.062 265.453 186.156L266.086 186.219C263.977 186.609 261.867 187.008 259.742 187.367C260.156 187.227 260.969 186.945 261.375 186.805C258.797 184.195 256.102 181.695 253.25 179.391C253.289 180.828 253.32 182.266 253.43 183.703C252.563 180.547 252.406 177.258 252.719 174.008Z" fill="#845C3F"/>
<path d="M225.906 186.156C227.016 183.961 228.305 181.859 229.859 179.945C230.156 182.352 230.352 184.766 230.445 187.195C228.844 187.016 227.25 186.828 225.656 186.633L225.906 186.156Z" fill="#865F43"/>
<path d="M188.047 210.43C188.883 210.047 189.742 209.727 190.617 209.453C190.57 211.148 190.656 212.852 190.633 214.547C190.5 215.383 190.219 216.18 189.984 216.992C189.43 216.617 188.312 215.859 187.758 215.477C187.828 213.797 187.828 212.102 188.047 210.43Z" fill="#825B3C"/>
<path d="M192.203 220.953C194.578 219.656 197.094 220.836 198.812 222.641C199.586 223.219 199.234 224.328 198.742 224.969C196.07 224.641 194 222.797 192.203 220.953Z" fill="#855C40"/>
<path d="M215.312 229.594C217.703 229.867 220.07 230.289 222.422 230.797C220.258 231.477 218.086 232.148 215.914 232.828C215.711 231.75 215.5 230.672 215.312 229.594Z" fill="#8C6449"/>
<path d="M226.93 233.812C228.453 233.336 229.969 232.852 231.508 232.422C232.852 233.414 233.969 234.672 235.086 235.914C233.539 236.133 231.969 236.539 230.406 236.297C228.992 235.906 228 234.734 226.93 233.812Z" fill="#835C41"/>
<path d="M239.609 235.922C241.594 236.359 243.703 236.641 245.469 237.742C245.461 238.664 245.375 239.594 245.297 240.523C243.398 239.945 241.5 239.359 239.609 238.789C239.602 237.828 239.602 236.875 239.609 235.922Z" fill="#84593D"/>
<path d="M251.43 240.055C253.57 240.078 255.438 241.258 257.32 242.133C257.219 242.727 257.023 243.93 256.922 244.523C254.711 243.953 252.344 243.477 250.57 241.937C250.57 241.18 250.859 240.555 251.43 240.055Z" fill="#825A3D"/>
<path d="M261.258 247.57C261.203 246.57 262.094 245.859 262.5 245.023C264.023 246.578 265.625 248.125 266.695 250.055C266.273 250.594 265.797 251.086 265.273 251.531C263.594 250.641 262.055 249.328 261.258 247.57Z" fill="#845C3E"/>
<path d="M263.703 261.195C264.195 258.75 265.078 256.281 267.469 255.109C267.711 257.406 267.188 259.656 266.102 261.687C265.5 261.562 264.305 261.312 263.703 261.195Z" fill="#855F41"/>
<path d="M181.086 265.492C183.375 266.391 185.883 267.133 187.602 269C187.789 269.805 187.523 270.438 186.828 270.898C184.414 270.82 182.414 269.281 180.383 268.156C180.562 267.492 180.914 266.164 181.086 265.492Z" fill="#895D40"/>
<path d="M171.281 273.93C171.906 272.273 172.383 270.391 173.844 269.242C174.898 269.187 175.781 269.555 176.508 270.336C176.461 271.953 175.992 273.523 175.484 275.062C173.008 282.086 169.984 288.914 166.391 295.445C165.242 295.117 164.078 294.82 163.008 294.281C163.281 291.93 164.539 289.875 165.555 287.789C167.844 283.336 169.711 278.68 171.281 273.93Z" fill="#084E46"/>
<path d="M205.555 276.586C208.367 276.742 211.336 277.258 213.555 279.141C213.578 279.914 213.297 280.555 212.727 281.07C209.844 280.719 206.234 279.906 205.555 276.586Z" fill="#845B3C"/>
<path d="M223.445 279.984C221.469 279.414 222.648 276.156 224.578 276.609C228.008 277.078 231.141 278.75 234.281 280.133C240.164 282.883 246.469 286.805 248.383 293.43C249.586 297.172 247.781 300.883 245.75 303.945C245.109 303.914 243.828 303.852 243.187 303.82C243.672 300.547 244.219 297.234 243.906 293.922C243.43 291.656 241.547 290.055 239.93 288.555C235.18 284.414 228.977 282.734 223.445 279.984Z" fill="#0B5048"/>
<path d="M218.859 281.195C221.367 281.68 224.133 282.062 226.109 283.844C226.734 284.828 226.516 285.586 225.445 286.117C222.695 285.578 218.914 284.672 218.859 281.195Z" fill="#855D40"/>
<path d="M99.0703 302.336C98.5781 295.922 103.68 289.805 109.93 288.703C113.164 288.32 116.75 288.281 119.523 290.25C123.875 292.93 126.633 298.023 126.227 303.156C125.914 306.633 124.125 309.703 122.375 312.641C119.297 317.719 116.18 322.781 112.656 327.562C109.031 322.75 105.969 317.555 102.82 312.438C101.016 309.328 98.9922 306.062 99.0703 302.336ZM110.289 295.937C105.969 297.742 104.969 304.328 109.203 306.789C112.984 309.703 119.086 306.281 118.625 301.562C118.984 297.242 114.07 294.398 110.289 295.937Z" fill="#064D43"/>
<path d="M164.172 297.258C166.727 298.07 169.281 299.336 170.875 301.578C170.664 302.43 170.43 303.273 170.164 304.109C167.531 302.5 163.844 300.992 164.172 297.258Z" fill="#0C514C"/>
<path d="M176.758 304.656C179.438 305.195 182 306.148 184.531 307.148C184.555 307.812 184.586 309.125 184.602 309.781C182.445 309.398 180.203 309.109 178.266 308.031C176.875 307.508 177.156 305.805 176.758 304.656Z" fill="#0C5149"/>
<path d="M231.273 310.914C233.594 309.5 235.805 307.742 238.492 307.086C238.711 307.828 239.766 308.937 238.906 309.586C237.047 311.617 234.383 312.547 231.859 313.437C231.711 312.805 231.422 311.547 231.273 310.914Z" fill="#07504A"/>
<path d="M191.312 310.094C194.148 310.578 196.898 311.531 199.328 313.094C198.875 313.891 198.43 314.687 197.984 315.492C195.609 314.57 193.25 313.633 190.922 312.633C191.016 312 191.211 310.727 191.312 310.094Z" fill="#0A4F4A"/>
<path d="M216.547 316.805C219.273 315.711 222.062 314.773 224.914 314.047C224.898 314.93 224.906 315.812 224.797 316.703C222.953 318.43 220.336 319.141 217.867 319.336C217.359 318.516 216.953 317.656 216.547 316.805Z" fill="#0A4D4A"/>
<path d="M186.344 325.617C187.836 322.336 192.203 323.211 195.156 323.062C195.086 323.727 194.945 325.062 194.875 325.727C192.125 325.875 188.687 327.633 186.344 325.617Z" fill="#0A4D4A"/>
<path d="M205.164 315.805C206.906 314.352 209.258 315.883 210.984 316.672C212.492 317.219 212.734 318.844 213.148 320.187C212.523 320.133 211.281 320.016 210.656 319.953C209.68 319.852 208.703 319.75 207.734 319.656C206.484 318.687 205.437 317.391 205.164 315.805Z" fill="#9A6C4E"/>
<path d="M207.734 319.656C208.703 319.75 209.68 319.852 210.656 319.953C210.5 320.539 210.195 321.711 210.039 322.297C207.437 322.945 204.797 323.422 202.133 323.703C202.133 323.062 202.125 321.766 202.117 321.117C203.969 320.555 205.805 319.883 207.734 319.656Z" fill="#094E49"/>
<path d="M222.422 322.25C225.039 322.711 227.836 323.297 229.766 325.273C229.812 326.023 229.617 326.703 229.172 327.32C226.828 326.859 224.68 325.781 222.508 324.836C222.484 324.187 222.445 322.898 222.422 322.25Z" fill="#835E42"/>
<path d="M171.672 326.016C174.18 325.82 176.789 324.937 179.281 325.609C179.625 326.328 179.938 327.062 180.227 327.812C177.125 328.609 173.883 329.125 170.727 328.336C171.039 327.562 171.352 326.781 171.672 326.016Z" fill="#0A4C49"/>
<path d="M155.914 327.516C158.352 327.266 160.789 326.852 163.25 326.891C163.898 327.625 164.313 328.523 164.797 329.375C161.766 330.023 158.648 330.32 155.555 329.984C155.648 329.367 155.828 328.133 155.914 327.516Z" fill="#094A45"/>
<path d="M124.836 328.422C127.477 327.992 130.781 327.375 133.055 329.117C133.18 332.148 128.867 331.266 126.883 331.344C125.164 331.844 122.641 329.602 124.836 328.422Z" fill="#094A45"/>
<path d="M112.852 328.016C114.141 328.031 115.43 328.055 116.719 328.094C116.719 328.695 116.711 329.906 116.711 330.516C115.422 330.523 114.133 330.539 112.844 330.547C112.844 329.914 112.852 328.648 112.852 328.016Z" fill="#074842"/>
<path d="M140 328.492C142.57 327.828 145.297 327.766 147.922 328.164C148.969 329.023 148.758 330.172 147.539 330.703C145.086 331.352 142.508 331.094 140 331.117C139.984 330.234 139.953 329.359 140 328.492Z" fill="#084C46"/>
</svg>
