<?xml version="1.0" encoding="UTF-8" ?>
<!DOCTYPE svg PUBLIC "-//W3C//DTD SVG 1.1//EN" "http://www.w3.org/Graphics/SVG/1.1/DTD/svg11.dtd">
<svg width="1024pt" height="1024pt" viewBox="0 0 1024 1024" version="1.1" xmlns="http://www.w3.org/2000/svg">
<g id="#45764eff">
</g>
<g id="#d9e1e8ff">
</g>
<g id="#45774eff">
</g>
<g id="#084d46ff">
<path fill="#084d46" opacity="1.00" d=" M 414.28 144.50 C 449.05 128.82 486.78 119.13 525.00 118.20 C 533.97 117.46 543.02 117.47 551.99 118.27 C 568.87 118.54 585.54 121.60 602.05 124.85 C 625.58 130.52 648.68 138.39 670.16 149.66 C 673.60 151.50 679.18 153.08 678.72 158.00 C 679.21 161.61 675.48 164.83 672.03 164.36 C 656.03 162.09 639.99 159.51 623.80 159.46 C 614.84 159.54 605.96 158.18 597.00 158.52 C 590.29 158.09 583.70 159.66 577.01 159.52 C 566.95 159.86 556.94 160.75 546.97 162.03 C 529.53 164.53 511.99 167.24 495.35 173.26 C 485.34 177.10 474.55 180.95 467.52 189.48 C 464.51 192.88 464.26 198.34 467.24 201.84 C 470.80 206.06 475.66 208.98 480.58 211.37 C 498.14 219.73 517.33 224.05 536.42 227.29 C 555.14 230.19 573.94 232.93 592.90 233.60 C 601.52 235.10 610.31 234.37 619.01 235.20 C 632.99 235.72 647.00 235.60 661.00 235.31 C 670.97 234.21 681.06 235.14 691.00 233.64 C 699.70 233.60 708.30 232.18 716.97 231.58 C 734.78 229.94 752.46 226.98 770.02 223.58 C 775.08 222.38 779.64 229.22 776.35 233.35 C 774.55 235.96 771.15 236.08 768.35 236.75 C 756.09 239.55 743.55 240.68 731.18 242.88 C 705.89 245.81 680.48 247.65 655.00 247.64 C 644.04 248.79 632.96 248.63 622.00 247.61 C 611.68 247.50 601.39 247.02 591.09 246.44 C 570.52 244.25 549.83 242.77 529.51 238.69 C 513.20 235.35 496.77 231.84 481.33 225.45 C 472.95 221.81 464.55 217.52 458.32 210.65 C 452.03 204.31 450.58 193.75 454.96 185.96 C 458.01 180.58 462.49 176.09 467.63 172.68 C 479.94 164.33 494.35 159.74 508.71 156.33 C 527.52 151.15 547.02 148.98 566.43 147.54 C 587.91 145.45 609.54 146.37 631.08 146.66 C 615.25 140.17 598.38 136.70 581.58 133.75 C 540.32 127.32 497.50 129.66 457.48 141.76 C 440.88 146.38 425.07 153.32 409.53 160.66 C 377.76 176.51 349.14 198.08 323.38 222.39 C 315.33 230.35 306.79 237.90 299.80 246.85 C 268.04 282.13 241.72 322.49 223.46 366.36 C 221.79 370.51 220.06 374.66 219.03 379.03 C 223.86 377.94 228.23 375.52 232.88 373.89 C 263.36 362.55 295.59 356.36 325.53 343.47 C 340.66 336.81 355.63 328.20 365.79 314.81 C 369.09 309.66 371.97 304.05 372.90 297.93 C 373.41 296.29 373.24 294.01 375.04 293.14 C 379.26 290.09 386.13 293.61 385.26 299.00 C 383.25 313.97 373.80 326.93 362.34 336.31 C 343.53 351.18 320.78 359.87 298.10 366.89 C 275.27 373.57 252.20 379.64 229.98 388.20 C 223.37 390.65 217.41 394.50 210.89 397.14 C 206.34 398.95 201.26 393.92 202.59 389.29 C 207.12 373.54 213.02 358.18 220.22 343.45 C 238.09 304.92 262.44 269.60 290.90 238.13 C 293.31 235.55 295.75 232.98 298.12 230.35 C 307.73 219.63 318.46 210.00 329.09 200.32 C 332.76 197.26 336.44 194.21 340.12 191.16 C 351.44 181.96 363.37 173.53 375.57 165.54 C 387.90 157.53 401.09 150.97 414.28 144.50 Z" />
<path fill="#084d46" opacity="1.00" d=" M 599.12 313.61 C 627.97 310.57 656.95 308.01 686.00 308.46 C 696.37 308.63 706.81 307.92 717.12 309.31 C 741.52 309.67 765.73 313.54 789.54 318.73 C 804.41 322.82 819.55 327.00 832.91 334.96 C 842.50 340.21 851.20 347.76 856.16 357.66 C 860.34 365.90 860.74 375.94 857.27 384.50 C 850.57 399.40 837.86 410.51 824.71 419.68 C 806.81 432.13 786.94 441.30 766.90 449.70 C 753.72 454.69 740.47 459.52 727.15 464.13 C 705.19 471.48 682.82 477.49 660.42 483.31 C 649.33 485.78 638.32 488.67 627.11 490.55 C 627.56 496.13 631.75 501.94 627.93 507.24 C 632.92 511.57 638.83 514.76 643.42 519.57 C 649.56 525.93 655.05 533.88 655.47 542.99 C 656.00 552.08 650.93 560.49 644.43 566.45 C 633.51 576.53 619.74 582.64 606.24 588.43 C 597.74 592.34 588.80 595.17 579.97 598.23 C 571.03 601.58 562.05 604.83 552.87 607.47 C 550.11 608.21 547.35 608.98 544.65 609.91 C 508.05 621.88 471.05 632.87 435.46 647.66 C 426.54 651.74 417.59 655.95 409.61 661.73 C 404.85 665.41 400.28 670.02 398.72 676.01 C 397.94 679.63 399.61 683.05 401.04 686.27 C 402.70 689.16 400.93 692.68 398.60 694.59 C 396.59 694.78 393.97 695.21 392.52 693.46 C 387.67 688.32 386.08 680.82 386.61 673.95 C 387.95 664.38 395.40 657.33 402.63 651.66 C 413.81 643.22 426.93 637.93 439.78 632.60 C 456.72 625.27 474.40 619.91 491.81 613.85 C 499.16 611.51 506.40 608.79 513.84 606.70 C 518.76 605.41 523.61 603.88 528.43 602.25 C 541.38 598.34 554.10 593.72 567.01 589.68 C 588.94 581.53 611.82 574.66 631.23 561.19 C 636.67 556.98 643.07 551.55 642.68 543.99 C 642.98 539.02 639.95 534.69 636.89 531.08 C 630.17 523.62 621.72 517.94 612.95 513.16 C 602.36 507.76 591.62 502.58 580.41 498.59 C 565.80 493.39 551.18 488.25 536.42 483.51 C 517.95 477.38 499.41 471.03 482.38 461.49 C 476.65 458.29 472.05 453.53 466.56 450.00 C 466.55 479.37 461.46 508.65 452.47 536.58 C 450.74 541.20 449.61 546.08 447.39 550.50 C 445.74 553.26 442.25 553.20 439.46 552.86 C 438.30 551.23 436.75 549.66 436.53 547.59 C 436.27 544.92 437.23 542.34 438.01 539.84 C 439.49 535.74 440.75 531.56 442.13 527.43 C 443.57 523.51 444.51 519.44 445.09 515.31 L 444.17 515.40 C 433.43 515.53 422.69 515.82 411.95 515.79 C 399.01 517.02 385.94 516.67 373.01 515.62 C 361.65 515.80 350.36 514.48 339.06 513.57 C 319.61 511.92 300.28 508.92 281.27 504.51 C 270.74 501.45 259.99 498.84 250.04 494.12 C 239.36 489.64 229.03 483.41 221.76 474.23 C 215.69 467.11 213.41 457.20 214.72 448.04 C 216.18 438.77 221.54 430.60 228.05 424.04 C 237.28 414.50 248.82 407.66 260.38 401.33 C 292.68 384.93 327.64 374.86 362.26 364.65 C 440.00 342.65 518.73 322.93 599.12 313.61 M 680.37 320.96 C 673.44 320.02 666.53 321.53 659.59 321.48 C 647.89 321.57 636.23 322.66 624.59 323.47 L 624.33 324.12 C 623.57 324.14 622.05 324.17 621.29 324.18 C 607.04 325.15 592.88 327.15 578.70 328.71 C 578.04 328.86 576.74 329.17 576.09 329.32 C 561.86 331.30 547.72 333.89 533.50 335.88 C 531.58 335.99 529.68 336.24 527.83 336.75 C 516.09 339.66 504.17 341.83 492.29 344.14 C 491.17 344.34 490.05 344.54 488.94 344.75 L 489.15 345.47 C 476.55 347.83 464.12 351.04 451.63 353.92 C 450.51 354.30 449.39 354.68 448.27 355.07 C 432.18 358.32 416.29 362.67 400.52 367.23 L 399.89 366.89 C 399.25 367.30 397.97 368.13 397.33 368.54 C 396.32 368.22 395.30 368.24 394.28 368.58 C 380.63 372.34 367.02 376.24 353.47 380.34 C 348.85 381.83 344.01 382.66 339.58 384.69 C 338.05 384.36 336.56 385.33 335.09 385.66 C 319.21 391.18 303.01 395.95 287.57 402.72 C 286.50 403.26 285.47 403.87 284.48 404.53 C 282.96 404.34 281.53 405.16 280.09 405.52 C 274.00 409.28 267.19 411.63 260.97 415.15 C 252.85 419.81 244.99 425.10 238.20 431.57 C 237.51 432.23 236.83 432.89 236.15 433.56 C 231.29 439.28 226.47 446.11 227.14 454.02 C 226.70 459.48 229.70 464.32 233.04 468.35 C 233.57 469.04 234.11 469.74 234.65 470.44 L 235.29 470.34 C 237.07 472.35 239.10 474.16 241.38 475.59 C 249.92 481.05 259.40 484.81 268.98 488.01 C 280.52 492.30 292.77 493.94 304.74 496.59 L 305.44 496.17 C 306.41 496.75 307.39 496.95 308.40 496.78 C 312.05 498.31 316.05 498.43 319.91 499.05 C 336.47 501.01 353.09 502.36 369.74 503.23 C 370.68 503.29 371.62 503.28 372.57 503.22 C 389.37 503.84 406.23 503.72 423.05 503.31 C 423.64 503.27 424.82 503.17 425.41 503.13 C 433.09 503.72 440.73 502.22 448.43 502.41 C 449.93 496.71 450.48 490.83 451.43 485.04 C 452.43 478.30 453.56 471.55 453.56 464.72 C 455.52 458.97 454.50 452.70 454.53 446.74 C 454.86 443.87 454.61 440.98 454.56 438.11 C 459.49 436.29 462.76 431.83 467.27 429.28 C 472.37 439.57 481.87 446.78 491.67 452.30 C 508.35 461.57 526.74 467.07 544.78 473.00 C 547.43 474.36 550.25 475.34 553.15 476.05 C 570.85 481.23 588.14 487.70 605.04 495.08 C 608.78 496.82 612.37 498.89 616.03 500.79 C 615.05 494.78 612.97 489.01 611.89 483.02 C 606.23 459.92 603.74 436.21 601.71 412.57 C 601.76 410.64 601.74 408.70 601.66 406.78 C 601.25 399.60 601.72 392.38 601.41 385.21 C 603.76 384.11 606.18 382.23 608.94 382.91 C 611.37 383.37 613.91 385.32 613.73 388.04 C 614.00 396.04 613.60 404.05 613.98 412.05 C 614.23 413.27 613.88 414.87 614.87 415.83 C 614.76 421.13 614.94 426.68 616.30 431.77 C 616.40 437.06 616.36 442.66 618.44 447.60 C 618.39 452.56 619.74 457.36 620.45 462.23 C 621.26 467.71 622.43 473.13 623.89 478.48 C 631.10 477.51 638.13 475.58 645.17 473.78 C 645.73 473.60 646.85 473.25 647.41 473.07 C 662.32 470.28 676.95 466.08 691.47 461.77 C 692.48 461.72 693.46 461.50 694.42 461.09 C 704.66 458.09 714.87 454.97 725.05 451.73 C 732.39 449.19 739.56 446.20 746.92 443.70 C 751.43 441.94 756.21 440.79 760.41 438.31 C 762.78 438.47 764.92 437.20 767.07 436.37 C 781.74 429.53 796.62 422.97 810.31 414.24 C 822.29 406.64 834.00 397.94 842.19 386.17 C 845.15 381.69 847.24 376.44 846.84 370.99 C 846.98 364.97 843.57 359.63 839.70 355.32 C 839.03 354.76 838.37 354.20 837.72 353.65 C 826.40 343.62 811.92 338.64 797.92 333.65 C 796.04 333.11 794.14 332.60 792.24 332.17 C 776.30 328.92 760.42 324.69 744.09 323.98 C 743.15 323.76 742.22 323.65 741.28 323.65 C 730.75 322.12 720.09 321.58 709.46 321.30 C 701.06 320.21 692.57 320.76 684.12 320.51 C 682.91 320.62 681.25 319.86 680.37 320.96 Z" />
</g>
<g id="#7a594bff">
<path fill="#7a594b" opacity="1.00" d=" M 328.39 196.40 C 331.55 193.35 336.01 192.28 340.12 191.16 C 336.44 194.21 332.76 197.26 329.09 200.32 C 328.78 199.03 328.41 197.73 328.39 196.40 Z" />
</g>
<g id="#815a3cff">
<path fill="#815a3c" opacity="1.00" d=" M 310.59 204.70 C 313.90 202.66 317.99 206.42 316.12 209.81 C 313.11 212.90 309.65 215.56 306.37 218.36 C 304.20 220.31 300.07 218.98 300.21 215.82 C 299.66 213.39 301.77 211.78 303.34 210.35 C 305.68 208.37 307.95 206.28 310.59 204.70 Z" />
</g>
<g id="#855d3fff">
<path fill="#855d3f" opacity="1.00" d=" M 291.58 230.48 C 293.75 230.29 295.94 230.27 298.12 230.35 C 295.75 232.98 293.31 235.55 290.90 238.13 C 290.55 235.55 290.91 232.98 291.58 230.48 Z" />
</g>
<g id="#845838ff">
<path fill="#845838" opacity="1.00" d=" M 305.86 262.85 C 305.19 260.56 305.61 257.50 308.08 256.50 C 310.44 255.89 312.41 257.64 314.39 258.62 C 317.08 260.27 320.10 261.41 322.59 263.39 C 324.12 264.66 323.45 266.88 323.74 268.61 C 322.06 269.53 320.18 271.23 318.17 270.10 C 313.86 268.09 309.50 265.94 305.86 262.85 Z" />
<path fill="#845838" opacity="1.00" d=" M 601.41 273.73 C 606.45 273.46 611.54 273.05 616.59 273.47 C 619.89 274.82 619.31 280.28 615.91 281.13 C 611.95 281.69 607.94 281.57 603.99 282.21 C 601.92 282.34 599.35 283.05 597.82 281.20 C 594.86 278.57 597.65 273.38 601.41 273.73 Z" />
</g>
<g id="#805434ff">
<path fill="#805434" opacity="1.00" d=" M 678.00 277.41 C 674.06 276.76 674.24 269.86 678.19 269.45 C 684.23 269.22 690.31 269.07 696.36 269.56 C 696.80 271.51 698.05 273.71 696.70 275.59 C 695.67 277.68 692.97 277.35 691.04 277.48 C 686.69 277.43 682.33 277.73 678.00 277.41 Z" />
</g>
<g id="#825636ff">
<path fill="#825636" opacity="1.00" d=" M 716.47 269.43 C 719.13 268.24 722.16 268.82 725.00 268.71 C 728.38 268.88 731.97 268.50 735.16 269.85 C 737.07 272.06 736.92 276.09 733.89 277.23 C 729.59 277.68 725.26 277.27 720.95 277.39 C 719.19 277.26 717.08 277.69 715.82 276.15 C 713.72 274.53 713.97 270.54 716.47 269.43 Z" />
<path fill="#825636" opacity="1.00" d=" M 741.28 323.65 C 742.22 323.65 743.15 323.76 744.09 323.98 C 729.18 337.11 713.20 349.14 695.79 358.79 C 681.79 366.35 667.27 373.08 652.11 377.96 C 647.35 379.49 642.52 380.81 637.94 382.83 C 645.03 382.63 651.96 381.03 658.95 379.93 C 677.29 376.81 695.49 372.73 713.22 367.06 C 740.74 358.69 767.79 348.23 792.84 334.00 C 792.69 333.54 792.39 332.63 792.24 332.17 C 794.14 332.60 796.04 333.11 797.92 333.65 C 793.44 335.71 789.60 338.85 785.46 341.47 C 749.03 365.02 707.06 378.80 664.61 386.60 C 659.03 387.66 653.32 388.07 647.86 389.72 C 657.85 390.90 667.98 390.41 678.01 389.89 C 721.28 388.43 764.76 382.33 805.73 367.91 C 811.39 366.05 817.04 364.11 822.39 361.46 C 827.54 358.94 833.10 357.15 837.72 353.65 C 838.37 354.20 839.03 354.76 839.70 355.32 C 823.32 364.30 806.79 373.32 788.87 378.92 C 746.94 393.46 702.17 397.77 658.01 397.48 C 652.27 397.44 646.54 397.34 640.81 397.61 C 658.22 402.22 676.25 403.59 694.11 405.39 C 706.04 406.59 718.03 406.71 730.00 407.23 C 747.28 406.63 764.65 406.49 781.79 403.86 C 792.68 402.51 803.59 401.09 814.20 398.18 C 821.35 396.82 827.94 393.54 835.07 392.10 C 828.97 396.67 821.61 398.97 814.53 401.50 C 802.23 405.71 789.42 408.01 776.70 410.50 C 760.91 412.88 744.93 413.52 729.00 414.22 C 718.00 413.53 706.95 413.83 695.97 412.76 C 681.11 411.94 666.40 409.50 651.70 407.26 C 643.97 406.12 636.49 403.75 628.81 402.39 C 634.31 405.97 640.65 407.84 646.70 410.27 C 668.16 418.19 690.31 424.25 712.83 428.29 C 730.79 431.65 748.86 434.74 767.07 436.37 C 764.92 437.20 762.78 438.47 760.41 438.31 C 748.68 437.14 736.85 437.28 725.12 435.96 C 712.50 434.34 699.79 432.87 687.44 429.68 C 662.34 423.71 637.46 416.04 614.43 404.21 C 615.57 406.70 617.04 409.06 619.17 410.84 C 635.16 425.21 652.28 438.55 671.33 448.65 C 678.83 453.15 686.71 456.95 694.42 461.09 C 693.46 461.50 692.48 461.72 691.47 461.77 C 681.03 457.57 670.26 454.08 660.32 448.71 C 643.49 440.32 628.30 428.95 614.87 415.83 C 613.88 414.87 614.23 413.27 613.98 412.05 C 613.60 404.05 614.00 396.04 613.73 388.04 C 613.91 385.32 611.37 383.37 608.94 382.91 C 606.18 382.23 603.76 384.11 601.41 385.21 C 601.06 384.43 600.71 383.65 600.36 382.88 C 607.10 381.09 613.99 379.96 620.85 378.68 C 640.64 374.96 659.70 368.11 678.15 360.17 C 691.16 354.12 704.19 348.01 716.36 340.36 C 724.86 335.10 733.54 330.03 741.28 323.65 Z" />
</g>
<g id="#835a3aff">
<path fill="#835a3a" opacity="1.00" d=" M 338.23 270.91 C 341.63 269.52 345.22 271.76 348.62 272.32 C 351.37 273.32 355.82 273.34 356.23 277.05 C 356.77 279.77 353.95 282.51 351.25 281.51 C 346.65 280.34 341.89 279.45 337.61 277.37 C 336.03 275.44 336.28 272.49 338.23 270.91 Z" />
</g>
<g id="#815435ff">
<path fill="#815435" opacity="1.00" d=" M 638.41 271.47 C 643.84 270.34 649.48 270.46 654.99 270.67 C 658.90 271.26 658.68 278.13 654.82 278.56 C 649.57 279.07 644.28 279.58 639.00 279.32 C 635.09 278.90 634.49 272.39 638.41 271.47 Z" />
</g>
<g id="#825839ff">
<path fill="#825839" opacity="1.00" d=" M 754.58 271.55 C 761.11 270.32 767.87 271.72 774.38 272.69 C 775.62 274.97 775.71 277.49 774.87 279.94 C 769.94 281.27 764.93 279.71 759.97 279.57 C 758.03 279.40 755.46 279.54 754.54 277.42 C 753.27 275.59 754.10 273.47 754.58 271.55 Z" />
<path fill="#825839" opacity="1.00" d=" M 444.45 724.61 C 443.69 721.56 446.53 718.13 449.74 719.44 C 454.91 721.36 460.03 723.54 465.01 725.93 C 467.30 726.85 466.47 729.72 466.75 731.65 C 464.99 732.40 463.20 734.06 461.20 733.05 C 456.96 731.64 452.82 729.95 448.66 728.34 C 446.96 727.56 444.64 726.79 444.45 724.61 Z" />
</g>
<g id="#825837ff">
<path fill="#825837" opacity="1.00" d=" M 794.43 276.43 C 798.58 276.06 802.52 277.83 806.51 278.73 C 808.77 279.55 811.83 279.79 812.90 282.32 C 814.53 285.16 811.20 288.98 808.10 287.76 C 803.26 286.59 798.40 285.47 793.56 284.31 C 791.57 282.16 791.43 277.75 794.43 276.43 Z" />
</g>
<g id="#7f5334ff">
<path fill="#7f5334" opacity="1.00" d=" M 559.49 277.69 C 564.67 277.27 569.85 276.53 575.05 276.46 C 578.42 276.04 580.42 280.81 578.18 283.20 C 577.34 284.69 575.48 284.41 574.05 284.67 C 569.08 285.04 564.07 286.01 559.08 285.45 C 555.87 283.85 556.37 279.03 559.49 277.69 Z" />
</g>
<g id="#81593bff">
<path fill="#81593b" opacity="1.00" d=" M 372.45 278.49 C 376.01 277.75 379.54 279.06 383.07 279.37 C 385.53 279.79 388.64 279.44 390.28 281.75 C 391.93 284.31 390.17 288.26 386.98 288.22 C 382.38 287.67 377.79 286.88 373.25 286.00 C 369.75 285.43 369.88 280.17 372.45 278.49 Z" />
</g>
<g id="#815536ff">
<path fill="#815536" opacity="1.00" d=" M 533.36 280.27 C 535.28 280.28 537.39 279.87 539.18 280.82 C 540.19 282.92 540.39 285.90 538.52 287.59 C 536.51 288.62 534.16 288.33 531.99 288.55 C 528.30 288.58 524.68 289.56 520.99 289.37 C 517.60 288.67 517.18 283.59 519.61 281.59 C 524.04 280.20 528.78 280.68 533.36 280.27 Z" />
</g>
<g id="#835735ff">
<path fill="#835735" opacity="1.00" d=" M 497.26 282.69 C 501.53 282.51 502.43 290.55 497.86 290.95 C 492.96 291.68 487.94 291.56 483.00 291.48 C 479.37 291.80 478.49 286.81 480.66 284.68 C 481.82 282.93 484.17 283.61 485.94 283.38 C 489.73 283.49 493.48 282.95 497.26 282.69 Z" />
</g>
<g id="#84593aff">
<path fill="#84593a" opacity="1.00" d=" M 407.49 283.36 C 412.32 281.47 417.88 283.45 422.98 283.39 C 427.46 282.91 428.29 290.83 424.01 291.40 C 419.12 291.63 414.14 291.56 409.33 290.60 C 405.99 290.22 405.24 285.32 407.49 283.36 Z" />
</g>
<g id="#805637ff">
<path fill="#805637" opacity="1.00" d=" M 444.45 284.58 C 449.59 283.98 454.80 284.35 459.97 284.32 C 464.24 283.97 464.94 291.25 460.89 292.22 C 455.95 292.63 450.95 292.53 446.00 292.27 C 442.20 291.94 440.88 286.25 444.45 284.58 Z" />
</g>
<g id="#835736ff">
<path fill="#835736" opacity="1.00" d=" M 830.39 289.33 C 833.26 288.63 835.61 290.74 837.81 292.21 C 840.44 294.22 843.31 295.98 845.53 298.47 C 846.11 300.46 846.19 303.32 843.79 304.12 C 841.55 305.43 839.40 303.60 837.61 302.41 C 834.70 300.29 831.52 298.56 828.78 296.23 C 826.55 294.24 827.81 290.28 830.39 289.33 Z" />
</g>
<g id="#845939ff">
<path fill="#845939" opacity="1.00" d=" M 851.31 317.38 C 852.39 314.43 855.90 314.46 858.28 315.73 C 860.16 320.58 859.92 325.87 859.69 330.97 C 859.72 333.46 857.29 336.38 854.62 335.48 C 852.70 335.02 851.12 333.07 851.58 331.06 C 852.01 326.48 851.15 321.93 851.31 317.38 Z" />
</g>
<g id="#825638ff">
<path fill="#825638" opacity="1.00" d=" M 680.37 320.96 C 681.25 319.86 682.91 320.62 684.12 320.51 C 674.11 335.16 660.65 347.05 646.17 357.13 C 633.21 365.80 619.36 373.25 604.72 378.68 C 599.62 380.28 594.56 383.01 589.04 382.20 C 577.51 380.93 565.93 382.09 554.38 382.12 C 556.18 378.69 560.09 377.79 563.35 376.35 C 576.70 371.15 588.37 362.46 598.87 352.86 C 607.64 344.42 615.11 334.66 621.29 324.18 C 622.05 324.17 623.57 324.14 624.33 324.12 C 618.67 341.02 607.18 355.32 593.81 366.81 C 588.93 371.11 583.14 374.14 577.87 377.90 C 580.26 377.72 582.68 377.55 585.01 376.94 C 601.73 372.16 618.20 366.09 633.18 357.17 C 643.77 351.02 654.13 344.41 663.60 336.63 C 669.50 331.75 675.54 326.95 680.37 320.96 Z" />
<path fill="#825638" opacity="1.00" d=" M 448.27 355.07 C 449.39 354.68 450.51 354.30 451.63 353.92 C 467.58 369.70 487.87 380.70 509.51 386.40 C 509.57 386.98 509.70 388.13 509.76 388.71 C 504.83 389.73 499.72 390.10 494.99 391.94 C 484.49 395.72 473.10 397.87 463.79 404.33 C 462.31 403.14 460.97 401.30 458.88 401.34 C 455.64 401.15 451.61 403.24 451.89 406.96 C 451.92 416.33 454.12 425.56 454.39 434.94 C 449.27 439.64 444.91 445.09 440.01 450.02 C 428.57 461.98 416.03 472.87 402.74 482.72 C 392.83 489.77 382.53 496.26 372.57 503.22 C 371.62 503.28 370.68 503.29 369.74 503.23 C 376.53 496.79 384.33 491.53 391.35 485.34 C 404.67 473.69 418.36 462.40 430.53 449.52 C 435.04 444.70 439.85 440.16 444.20 435.19 C 447.34 431.65 450.82 428.32 453.05 424.09 C 414.22 450.77 371.74 471.85 327.85 488.84 C 321.28 491.26 314.68 493.66 308.40 496.78 C 307.39 496.95 306.41 496.75 305.44 496.17 C 320.79 487.69 336.76 480.38 352.39 472.41 C 372.03 463.05 391.17 452.66 410.27 442.23 C 416.15 438.38 422.82 435.70 428.14 431.04 C 422.57 432.40 417.53 435.21 412.14 437.08 C 394.12 443.35 376.18 449.90 357.73 454.83 C 324.07 464.63 289.20 471.72 254.00 470.92 C 247.76 470.97 241.50 469.22 235.29 470.34 L 234.65 470.44 C 234.11 469.74 233.57 469.04 233.04 468.35 C 242.99 467.55 253.00 468.06 262.93 466.98 C 309.60 462.71 354.81 449.27 398.89 433.93 C 405.96 431.01 413.52 429.12 420.08 425.06 C 416.17 425.55 412.38 426.62 408.60 427.68 C 399.10 430.32 389.36 431.86 379.70 433.77 C 364.03 436.87 348.17 438.88 332.30 440.64 C 314.28 442.83 296.03 443.13 277.95 441.64 C 263.70 441.12 249.66 438.01 236.15 433.56 C 236.83 432.89 237.51 432.23 238.20 431.57 C 240.93 432.97 243.93 433.70 246.98 434.05 C 281.35 438.88 316.34 436.40 350.53 431.23 C 369.88 428.39 389.25 425.29 408.17 420.30 C 401.44 420.07 394.73 420.61 388.02 421.04 C 376.02 421.81 364.03 420.79 352.04 420.41 C 330.56 418.93 309.11 415.31 288.74 408.20 C 285.89 407.18 283.01 406.27 280.09 405.52 C 281.53 405.16 282.96 404.34 284.48 404.53 C 298.87 408.79 313.88 410.47 328.75 412.12 C 350.10 414.28 371.63 415.41 393.06 413.69 C 407.94 412.86 422.84 411.52 437.44 408.39 C 442.10 407.25 447.13 407.32 451.45 405.04 C 443.31 403.92 435.12 405.88 426.96 404.91 C 411.05 404.47 395.13 403.04 379.55 399.75 C 364.23 396.77 349.62 391.18 335.09 385.66 C 336.56 385.33 338.05 384.36 339.58 384.69 C 349.57 388.52 360.18 390.19 370.64 392.20 C 402.79 398.46 435.91 399.23 468.43 395.81 C 467.02 395.17 465.60 394.52 464.07 394.25 C 440.27 390.96 416.96 382.54 397.33 368.54 C 397.97 368.13 399.25 367.30 399.89 366.89 L 400.52 367.23 C 407.67 371.29 415.41 374.10 423.11 376.91 C 445.24 384.65 468.62 389.88 492.19 388.73 C 486.19 385.82 480.02 383.23 474.43 379.55 C 464.33 373.08 455.34 364.77 448.27 355.07 Z" />
</g>
<g id="#d9e1e7ff">
</g>
<g id="#dae1e8ff">
</g>
<g id="#d9e2e8ff">
</g>
<g id="#805539ff">
<path fill="#805539" opacity="1.00" d=" M 576.09 329.32 C 576.74 329.17 578.04 328.86 578.70 328.71 C 578.06 332.38 577.47 336.07 576.68 339.71 C 573.57 354.06 565.94 367.24 555.62 377.61 C 553.77 379.41 551.89 381.31 549.53 382.41 C 545.70 383.69 541.58 383.51 537.61 383.24 C 540.59 379.28 545.22 377.14 548.75 373.75 C 562.09 362.09 570.14 345.72 576.09 329.32 Z" />
</g>
<g id="#7e563aff">
<path fill="#7e563a" opacity="1.00" d=" M 527.83 336.75 C 529.68 336.24 531.58 335.99 533.50 335.88 C 534.54 343.92 536.58 351.85 536.53 360.00 C 536.54 368.31 535.74 376.82 532.59 384.58 C 530.38 384.68 528.18 384.78 525.99 384.86 C 526.61 380.52 528.05 376.36 528.86 372.07 C 530.82 360.56 530.70 348.85 530.64 337.22 C 529.94 337.10 528.54 336.86 527.83 336.75 Z" />
</g>
<g id="#7e5537ff">
<path fill="#7e5537" opacity="1.00" d=" M 488.94 344.75 C 490.05 344.54 491.17 344.34 492.29 344.14 C 493.40 348.97 496.30 353.07 498.74 357.30 C 502.58 363.63 506.53 369.97 511.54 375.47 C 514.86 379.14 518.93 382.01 522.67 385.23 C 519.73 386.84 515.78 388.67 512.74 386.29 C 506.61 382.02 502.60 375.52 498.64 369.34 C 493.96 362.08 491.61 353.67 489.15 345.47 L 488.94 344.75 Z" />
</g>
<g id="#d9e2e7ff">
</g>
<g id="#dae2e7ff">
</g>
<g id="#074a40ff">
<path fill="#074a40" opacity="1.00" d=" M 451.89 406.96 C 451.61 403.24 455.64 401.15 458.88 401.34 C 460.97 401.30 462.31 403.14 463.79 404.33 C 465.34 412.59 465.23 421.11 467.27 429.28 C 462.76 431.83 459.49 436.29 454.56 438.11 C 454.52 437.31 454.43 435.73 454.39 434.94 C 454.12 425.56 451.92 416.33 451.89 406.96 Z" />
</g>
<g id="#865c3dff">
<path fill="#865c3d" opacity="1.00" d=" M 597.29 405.41 C 598.75 405.85 600.20 406.31 601.66 406.78 C 601.74 408.70 601.76 410.64 601.71 412.57 C 597.55 415.15 594.08 418.73 589.76 421.03 C 586.26 422.48 583.14 417.44 585.68 414.76 C 589.13 411.16 593.49 408.61 597.29 405.41 Z" />
</g>
<g id="#845c3fff">
<path fill="#845c3f" opacity="1.00" d=" M 569.51 428.53 C 572.83 426.95 576.92 430.25 575.21 433.82 C 571.83 437.61 568.27 441.29 564.63 444.85 C 561.37 447.27 556.77 442.65 559.05 439.28 C 562.03 435.27 565.78 431.84 569.51 428.53 Z" />
</g>
<g id="#d8e1e8ff">
</g>
<g id="#815637ff">
<path fill="#815637" opacity="1.00" d=" M 616.30 431.77 C 624.88 446.77 635.09 460.91 647.41 473.07 C 646.85 473.25 645.73 473.60 645.17 473.78 C 635.46 465.94 625.81 457.77 618.44 447.60 C 616.36 442.66 616.40 437.06 616.30 431.77 Z" />
</g>
<g id="#d8e1e6ff">
</g>
<g id="#80573aff">
<path fill="#80573a" opacity="1.00" d=" M 448.49 459.40 C 450.62 455.24 453.01 451.17 454.53 446.74 C 454.50 452.70 455.52 458.97 453.56 464.72 C 446.31 478.95 435.91 491.21 425.41 503.13 C 424.82 503.17 423.64 503.27 423.05 503.31 C 426.64 497.82 430.56 492.53 433.87 486.86 C 439.12 477.90 443.74 468.61 448.49 459.40 Z" />
</g>
<g id="#dbe3e8ff">
</g>
<g id="#845d40ff">
<path fill="#845d40" opacity="1.00" d=" M 546.98 458.03 C 548.59 454.55 555.65 455.70 554.78 460.04 C 553.74 465.32 553.05 470.65 553.15 476.05 C 550.25 475.34 547.43 474.36 544.78 473.00 C 544.70 467.97 544.53 462.59 546.98 458.03 Z" />
</g>
<g id="#806a51ff">
<path fill="#806a51" opacity="1.00" d=" M 444.17 515.40 L 445.09 515.31 C 444.51 519.44 443.57 523.51 442.13 527.43 C 439.28 523.51 441.23 518.61 444.17 515.40 Z" />
</g>
<g id="#825939ff">
<path fill="#825939" opacity="1.00" d=" M 430.76 542.65 C 431.42 539.27 435.25 538.33 438.01 539.84 C 437.23 542.34 436.27 544.92 436.53 547.59 C 436.75 549.66 438.30 551.23 439.46 552.86 C 438.97 555.48 439.13 559.39 435.86 560.15 C 433.82 560.28 431.35 559.42 431.06 557.12 C 429.85 552.43 430.09 547.41 430.76 542.65 Z" />
</g>
<g id="#83593cff">
<path fill="#83593c" opacity="1.00" d=" M 447.28 570.01 C 449.16 568.65 451.25 570.10 452.83 571.21 C 456.33 573.73 460.16 575.74 463.66 578.27 C 463.67 579.73 463.67 581.21 463.67 582.69 C 462.05 583.67 460.15 585.23 458.21 584.02 C 454.25 582.05 450.30 579.96 446.79 577.26 C 444.37 575.60 444.63 571.33 447.28 570.01 Z" />
</g>
<g id="#83593bff">
<path fill="#83593b" opacity="1.00" d=" M 477.28 592.69 C 476.30 589.99 476.70 586.26 480.04 585.58 C 484.99 586.47 489.56 588.91 494.26 590.69 C 498.34 592.11 496.28 599.34 492.01 598.21 C 487.00 596.65 482.13 594.65 477.28 592.69 Z" />
</g>
<g id="#896043ff">
<path fill="#896043" opacity="1.00" d=" M 510.21 602.00 C 509.93 599.60 512.03 596.81 514.62 597.62 C 519.30 598.86 524.05 600.11 528.43 602.25 C 523.61 603.88 518.76 605.41 513.84 606.70 C 512.38 605.38 509.94 604.32 510.21 602.00 Z" />
</g>
<g id="#81593cff">
<path fill="#81593c" opacity="1.00" d=" M 544.65 609.91 C 547.35 608.98 550.11 608.21 552.87 607.47 C 556.48 609.46 560.83 609.51 564.38 611.60 C 566.44 613.92 565.25 618.17 561.96 618.39 C 556.64 617.97 551.63 615.82 546.51 614.42 C 545.88 612.92 545.26 611.41 544.65 609.91 Z" />
</g>
<g id="#82573aff">
<path fill="#82573a" opacity="1.00" d=" M 581.48 617.41 C 583.53 616.16 585.84 617.54 587.91 618.03 C 591.35 619.32 595.14 619.78 598.31 621.70 C 600.82 624.15 598.45 629.04 595.00 628.43 C 590.86 627.55 586.82 626.23 582.77 624.99 C 579.39 624.46 578.51 619.04 581.48 617.41 Z" />
</g>
<g id="#7f5638ff">
<path fill="#7f5638" opacity="1.00" d=" M 615.37 628.23 C 616.90 627.26 618.62 628.49 620.14 628.88 C 623.84 630.42 627.79 631.61 631.09 633.96 C 632.94 636.45 631.48 641.14 627.93 640.71 C 623.66 640.05 619.93 637.51 615.87 636.10 C 612.21 635.46 612.19 629.52 615.37 628.23 Z" />
</g>
<g id="#82593aff">
<path fill="#82593a" opacity="1.00" d=" M 645.45 644.41 C 646.89 644.14 648.55 644.24 649.57 645.45 C 652.63 648.38 655.84 651.31 658.02 654.98 C 659.38 657.18 657.79 661.07 654.93 660.76 C 652.11 661.46 650.57 658.80 648.97 657.03 C 647.00 654.57 644.61 652.47 642.87 649.84 C 642.13 647.76 643.53 645.28 645.45 644.41 Z" />
</g>
<g id="#845d3fff">
<path fill="#845d3f" opacity="1.00" d=" M 654.85 676.73 C 655.72 672.36 663.24 673.67 662.72 678.05 C 662.43 682.09 660.27 685.77 658.15 689.13 C 656.85 691.63 653.86 690.50 651.65 690.44 C 649.37 685.56 653.34 681.18 654.85 676.73 Z" />
</g>
<g id="#875a3cff">
<path fill="#875a3c" opacity="1.00" d=" M 412.29 702.37 C 414.72 702.32 416.68 704.19 418.77 705.22 C 421.70 707.03 424.94 708.29 427.82 710.18 C 430.50 711.73 429.91 716.06 427.52 717.57 C 424.90 718.58 422.32 717.02 420.03 715.92 C 416.59 714.05 412.90 712.59 409.79 710.21 C 407.07 707.89 408.66 702.70 412.29 702.37 Z" />
</g>
<g id="#074d45ff">
<path fill="#074d45" opacity="1.00" d=" M 388.47 713.62 C 390.94 713.11 394.33 712.58 396.00 714.99 C 398.06 717.07 397.78 720.23 396.82 722.77 C 389.50 744.44 381.21 765.93 369.69 785.76 C 367.43 790.43 359.74 789.72 358.47 784.69 C 357.29 779.82 361.42 776.20 363.20 772.10 C 372.24 754.63 379.66 736.32 385.62 717.58 C 386.19 716.05 386.93 714.39 388.47 713.62 Z" />
</g>
<g id="#845a3bff">
<path fill="#845a3b" opacity="1.00" d=" M 484.38 734.24 C 486.24 733.01 488.31 734.28 490.16 734.85 C 494.20 736.51 498.38 737.82 502.34 739.65 C 505.76 740.74 505.79 746.84 501.98 747.48 C 498.54 747.73 495.50 745.71 492.29 744.79 C 488.80 743.41 484.04 743.02 482.47 739.01 C 482.33 737.32 482.59 734.95 484.38 734.24 Z" />
</g>
<g id="#094f47ff">
<path fill="#094f47" opacity="1.00" d=" M 532.92 735.95 C 535.10 733.16 539.18 734.15 542.04 735.20 C 550.26 738.54 558.75 741.26 566.62 745.41 C 578.54 751.44 590.56 758.35 598.94 769.02 C 604.71 776.28 608.50 785.66 606.96 795.05 C 606.29 801.40 603.03 807.20 598.94 811.98 C 596.94 814.91 591.25 814.38 590.47 810.73 C 589.45 806.36 593.66 803.42 594.34 799.37 C 595.66 794.97 595.50 790.28 594.47 785.85 C 592.02 780.00 588.32 774.64 583.39 770.63 C 569.34 758.46 551.57 752.08 534.55 745.35 C 530.96 743.88 530.16 738.51 532.92 735.95 Z" />
<path fill="#094f47" opacity="1.00" d=" M 400.48 816.51 C 403.31 815.50 405.90 817.45 408.41 818.46 C 412.27 820.38 416.71 821.21 420.20 823.83 C 423.11 826.36 420.67 831.39 417.01 831.23 C 412.77 830.11 408.85 828.06 404.78 826.48 C 402.71 825.53 400.41 824.88 398.77 823.24 C 397.57 821.01 398.05 817.73 400.48 816.51 Z" />
</g>
<g id="#835a3cff">
<path fill="#835a3c" opacity="1.00" d=" M 523.36 748.35 C 526.53 747.80 529.39 749.78 532.28 750.78 C 535.64 752.40 539.52 753.16 542.45 755.59 C 543.54 758.27 542.41 762.24 538.96 762.12 C 535.79 761.67 532.97 760.05 530.00 759.00 C 527.38 757.95 524.62 757.19 522.18 755.75 C 519.35 754.07 520.18 749.06 523.36 748.35 Z" />
</g>
<g id="#835b3dff">
<path fill="#835b3d" opacity="1.00" d=" M 560.37 764.22 C 564.63 763.80 568.08 766.55 571.65 768.40 C 574.32 770.00 577.32 771.21 579.56 773.45 C 580.63 775.80 579.74 779.49 576.79 779.77 C 573.89 780.33 571.70 778.05 569.36 776.80 C 565.99 774.58 561.87 773.58 558.85 770.86 C 557.88 768.47 559.10 766.17 560.37 764.22 Z" />
</g>
<g id="#064d43ff">
<path fill="#064d43" opacity="1.00" d=" M 176.21 791.17 C 181.65 779.47 193.29 771.01 206.07 769.38 C 214.16 768.86 222.77 768.92 229.96 773.17 C 240.96 778.90 248.89 789.86 251.08 802.04 C 252.36 810.41 250.65 819.05 246.88 826.59 C 243.15 834.94 237.97 842.50 233.31 850.34 C 226.68 861.08 219.62 871.55 212.48 881.96 C 210.28 881.54 209.40 879.36 208.25 877.72 C 199.51 864.40 190.75 851.08 182.81 837.25 C 179.54 831.96 176.45 826.50 174.44 820.60 C 171.63 811.00 171.59 800.23 176.21 791.17 M 208.26 789.90 C 202.92 791.16 198.00 794.66 195.65 799.69 C 193.71 803.10 194.09 807.18 194.34 810.95 C 195.66 819.10 203.66 825.59 211.98 824.80 C 221.92 825.64 230.83 815.77 229.65 806.00 C 229.57 795.48 218.32 787.31 208.26 789.90 Z" />
</g>
<g id="#8f5c43ff">
<path fill="#8f5c43" opacity="1.00" d=" M 594.47 785.85 C 595.50 790.28 595.66 794.97 594.34 799.37 C 593.12 797.12 591.65 794.77 591.80 792.12 C 592.68 790.02 593.81 788.03 594.47 785.85 Z" />
</g>
<g id="#094f4aff">
<path fill="#094f4a" opacity="1.00" d=" M 363.45 795.42 C 366.28 793.32 368.80 796.45 370.93 798.06 C 373.87 800.87 377.50 802.77 380.63 805.32 C 382.53 806.66 382.63 809.46 381.18 811.18 C 379.69 813.53 376.20 813.07 374.20 811.68 C 369.68 808.63 365.38 805.25 361.31 801.62 C 361.32 799.38 360.78 796.37 363.45 795.42 Z" />
</g>
<g id="#46774fff">
</g>
<g id="#044e48ff">
<path fill="#044e48" opacity="1.00" d=" M 570.46 825.37 C 572.26 824.28 574.26 822.70 576.49 823.54 C 578.92 824.72 580.30 828.21 578.53 830.51 C 577.00 832.39 574.71 833.41 572.70 834.68 C 569.00 836.68 565.51 839.11 561.66 840.81 C 559.71 841.70 557.54 840.15 556.47 838.59 C 556.27 837.18 556.33 835.77 556.33 834.38 C 560.75 830.94 565.81 828.47 570.46 825.37 Z" />
</g>
<g id="#074d47ff">
<path fill="#074d47" opacity="1.00" d=" M 441.45 832.46 C 444.85 831.60 447.97 833.63 451.09 834.61 C 454.53 835.97 458.21 836.73 461.46 838.54 C 464.48 840.98 462.09 847.01 458.04 846.15 C 452.66 844.61 447.46 842.48 442.16 840.69 C 438.52 839.70 438.25 834.15 441.45 832.46 Z" />
</g>
<g id="#084c48ff">
<path fill="#084c48" opacity="1.00" d=" M 532.43 844.56 C 534.58 843.87 537.64 843.91 538.53 846.45 C 538.88 848.34 539.16 851.07 537.11 852.12 C 532.81 854.55 527.97 855.79 523.33 857.42 C 520.91 858.13 517.77 859.65 515.87 857.13 C 513.53 855.52 514.02 851.68 516.54 850.55 C 521.74 848.33 527.06 846.35 532.43 844.56 Z" />
</g>
<g id="#9a6a4bff">
<path fill="#9a6a4b" opacity="1.00" d=" M 481.80 854.17 C 479.22 851.68 480.78 845.50 484.98 846.54 C 488.67 847.33 492.05 849.13 495.60 850.39 C 498.14 851.41 501.00 852.06 503.07 853.98 C 504.33 856.07 503.81 859.23 501.63 860.55 C 499.88 860.92 498.04 860.84 496.31 860.46 C 494.08 859.84 491.90 859.07 489.65 858.57 C 487.54 856.28 484.43 855.60 481.80 854.17 Z" />
</g>
<g id="#064c47ff">
<path fill="#064c47" opacity="1.00" d=" M 473.05 863.14 C 478.37 860.96 484.19 860.38 489.65 858.57 C 491.90 859.07 494.08 859.84 496.31 860.46 C 495.75 862.83 496.22 866.35 493.20 867.12 C 487.85 868.86 482.22 869.58 476.81 871.09 C 474.80 871.92 473.05 870.40 471.31 869.64 C 471.50 867.45 470.37 864.14 473.05 863.14 Z" />
</g>
<g id="#815b3dff">
<path fill="#815b3d" opacity="1.00" d=" M 533.33 866.39 C 535.87 866.09 538.06 867.78 540.30 868.75 C 543.91 870.78 548.05 872.02 551.21 874.79 C 554.05 877.40 550.72 882.73 547.08 881.33 C 542.10 879.30 537.30 876.82 532.46 874.49 C 528.97 873.05 529.41 866.87 533.33 866.39 Z" />
</g>
<g id="#064b47ff">
<path fill="#064b47" opacity="1.00" d=" M 438.46 869.79 C 441.67 869.44 444.80 868.41 448.05 868.41 C 452.51 868.25 453.17 876.25 448.91 876.99 C 442.73 878.26 436.48 879.74 430.14 879.74 C 426.23 879.70 425.39 873.23 428.78 871.80 C 431.84 870.47 435.22 870.37 438.46 869.79 Z" />
</g>
<g id="#084b47ff">
<path fill="#084b47" opacity="1.00" d=" M 398.29 875.97 C 400.45 875.73 402.78 874.97 404.90 875.78 C 407.94 877.69 407.88 882.86 404.35 884.18 C 398.23 885.03 392.07 885.61 385.92 886.21 C 381.61 886.30 380.83 880.10 383.86 877.95 C 388.52 876.43 393.50 876.78 398.29 875.97 Z" />
</g>
<g id="#094a45ff">
<path fill="#094a45" opacity="1.00" d=" M 339.46 881.65 C 346.22 881.06 352.99 880.37 359.78 880.33 C 361.65 882.08 362.64 884.87 361.29 887.25 C 359.67 889.50 356.40 889.03 353.97 889.41 C 349.30 889.39 344.70 890.68 340.04 890.31 C 335.91 889.28 335.67 883.22 339.46 881.65 Z" />
</g>
<g id="#074842ff">
<path fill="#074842" opacity="1.00" d=" M 213.57 883.54 C 217.12 883.68 222.62 881.66 224.16 886.16 C 225.30 888.37 223.15 890.36 221.56 891.62 C 218.75 892.06 215.89 891.70 213.06 891.67 C 212.49 890.14 211.68 888.65 211.58 887.01 C 212.14 885.79 212.87 884.67 213.57 883.54 Z" />
</g>
<g id="#084c46ff">
<path fill="#084c46" opacity="1.00" d=" M 294.38 883.67 C 300.57 883.36 306.78 883.30 312.98 883.30 C 315.02 882.98 316.33 885.22 316.45 886.98 C 317.12 890.06 313.94 892.52 311.07 892.32 C 305.38 892.32 299.67 892.65 293.99 892.44 C 289.45 891.55 289.97 884.24 294.38 883.67 Z" />
</g>
<g id="#084a44ff">
<path fill="#084a44" opacity="1.00" d=" M 247.42 884.49 C 253.90 883.84 260.48 884.29 266.99 884.20 C 271.99 883.99 271.90 892.90 266.99 893.02 C 260.73 893.27 254.38 893.47 248.16 892.74 C 244.30 891.95 244.25 886.22 247.42 884.49 Z" />
</g>
<g id="#1e6427ff">
<path fill="#1e6427" opacity="1.00" d=" M 818.80 1024.00 C 822.87 1020.62 828.52 1023.16 833.33 1022.16 C 833.62 1022.62 834.18 1023.54 834.46 1024.00 L 818.80 1024.00 Z" />
</g>
<g id="#23612bff">
<path fill="#23612b" opacity="1.00" d=" M 189.79 1023.02 C 194.91 1022.52 200.39 1021.87 205.24 1024.00 L 189.01 1024.00 L 189.79 1023.02 Z" />
</g>
</svg>
